<svg width="100" height="100" viewBox="0 0 100 100" fill="none" xmlns="http://www.w3.org/2000/svg">
<rect x="19" y="19" width="62" height="70" fill="white"/>
<path fill-rule="evenodd" clip-rule="evenodd" d="M5 0C2.23853 0 0 2.23877 0 5V95C0 97.7612 2.23853 100 5 100H95C97.7615 100 100 97.7612 100 95V5C100 2.23877 97.7615 0 95 0H5ZM35.5281 84.0078C36.7227 84.2212 37.832 84.3281 38.856 84.3281C42.7812 84.3281 46.1306 83.5601 48.9041 82.0239C51.72 80.5308 54.2373 78.2695 56.4561 75.2402C58.6746 72.2104 60.8506 68.4346 62.9839 63.9121C64.2639 61.1387 65.48 58.2798 66.6321 55.3359C67.8267 52.3491 68.8721 49.4692 69.7681 46.6958C70.6641 43.9229 71.3679 41.4482 71.8799 39.272C72.1519 38.0938 72.3516 37.0479 72.4792 36.1348C72.5918 35.3281 72.6479 34.6245 72.6479 34.0239C72.6479 31.8481 72.1147 30.0771 71.0481 28.7119C70.0239 27.3042 68.3386 26.6001 65.9919 26.6001C63.2612 26.6001 60.2959 27.6025 57.0959 29.6079C57.3521 30.1201 57.5654 30.7173 57.7361 31.3999C57.9492 32.04 58.0559 32.8291 58.0559 33.7681C58.0559 34.689 57.9834 35.7183 57.8384 36.8569C57.7346 37.6704 57.5938 38.5391 57.416 39.4639C57.032 41.6401 56.52 43.9438 55.8799 46.376C55.24 48.7651 54.5146 51.1118 53.7041 53.416C52.936 55.7202 52.168 57.7896 51.3999 59.624H50.5039C50.4187 57.7041 50.3333 55.5708 50.248 53.2241C50.2053 50.8774 50.0774 48.4668 49.864 45.9922C49.6506 43.5171 49.2881 41.1279 48.7759 38.8242C48.3066 36.52 47.5813 34.4507 46.6001 32.6162C45.6614 30.7812 44.4026 29.3306 42.824 28.2642C41.2881 27.1548 39.3467 26.6001 37 26.6001C35.5493 26.6001 34.1626 26.856 32.8401 27.3682C32.2683 27.5776 31.6541 27.8428 30.9973 28.1631C30.1836 28.5596 29.3044 29.0415 28.3601 29.6079C30.0667 30.7598 31.4319 32.2749 32.4561 34.1519C33.48 35.9868 34.2693 38.0562 34.824 40.3599C35.3787 42.6641 35.7627 45.0532 35.9761 47.5278C36.1392 49.106 36.2678 50.6665 36.3618 52.21C36.415 53.0869 36.457 53.9585 36.488 54.8242C36.5732 57.2134 36.6799 59.4321 36.8081 61.48C36.9788 63.7412 37.6614 65.3413 38.856 66.2798C40.0933 67.1758 41.7573 67.624 43.8479 67.624C44.8293 67.624 45.7041 67.5601 46.4719 67.4321C47.24 67.3042 48.2854 67.0908 49.6079 66.792C48.8826 68.8398 47.6453 70.376 45.896 71.3999C44.1895 72.3813 42.3547 72.8721 40.3921 72.8721C38.6853 72.8721 37.0427 72.5093 35.4641 71.7842C33.8853 71.0586 32.6052 69.9922 31.624 68.584C30.5574 70.0347 29.7681 71.4854 29.2561 72.936C28.7439 74.3442 28.488 75.6025 28.488 76.7119C28.488 78.2905 28.8293 79.5708 29.512 80.5518C30.1946 81.5332 31.0693 82.3013 32.136 82.856C33.2026 83.4106 34.3333 83.7944 35.5281 84.0078Z" fill="#212529"/>
</svg>